<?xml version="1.0" standalone="no"?>
<!DOCTYPE svg PUBLIC "-//W3C//DTD SVG 20010904//EN"
 "http://www.w3.org/TR/2001/REC-SVG-20010904/DTD/svg10.dtd">
<svg version="1.0" xmlns="http://www.w3.org/2000/svg"
 width="405.000000pt" height="360.000000pt" viewBox="0 0 405.000000 360.000000"
 preserveAspectRatio="xMidYMid meet">
<metadata>
Created by potrace 1.16, written by Peter Selinger 2001-2019
</metadata>
<g transform="translate(0.000000,360.000000) scale(0.100000,-0.100000)"
fill="#000000" stroke="none">
<path d="M3220 2405 c-19 -7 -71 -31 -115 -53 -44 -22 -91 -43 -105 -47 -34
-10 -50 -25 -61 -54 -8 -20 -4 -31 22 -64 l33 -40 -45 -39 c-42 -36 -90 -50
-103 -29 -3 5 -40 30 -81 56 l-76 47 -87 -27 c-48 -15 -138 -50 -199 -77
l-113 -50 -42 -89 -42 -90 -35 4 c-20 2 -99 18 -176 35 -77 17 -178 38 -225
47 -47 9 -130 27 -185 40 -184 42 -288 58 -362 53 -64 -3 -76 -7 -104 -33 -62
-59 -80 -120 -59 -197 13 -45 43 -68 87 -68 37 0 39 6 17 53 -15 31 -15 36 0
65 14 28 21 31 83 38 81 8 168 -5 331 -50 153 -43 296 -80 407 -107 222 -52
246 -60 312 -105 102 -70 121 -77 198 -78 76 -1 142 21 315 107 l85 42 23 70
c13 39 26 88 30 109 6 34 14 43 57 67 28 16 55 28 61 29 6 0 29 -14 50 -31 46
-36 126 -79 149 -79 16 0 129 65 212 121 56 39 63 71 29 145 -48 103 -185 274
-231 287 -11 3 -36 0 -55 -8z"/>
</g>
</svg>
